# xmcd
#
# Track frame offsets: 
#        150
#        20175
#        40425
#        57900
#        76875
#        88051
#        105844
#        115295
#        134420
#        146346
#        163897
#        179874
#        197050
#
# Disc length: 2772 seconds
#
# Revision: 0
# Processed by: cddbd v1.5.2PL0 Copyright (c) Steve Scherf et al.
# Submitted via: ExactAudioCopy v0.95b4
#
DISCID=ba0ad20d
DTITLE=Joy Division - Boulevard Of Broken Dreams
DYEAR=1985
DGENRE=Blues
TTITLE0=Day Of The Lords (Live In Amsterdam 11.01.80)
TTITLE1=New Dawn Fades (Live In Amsterdam 11.01.80)
TTITLE2=A Means To An End (Live In Amsterdam 11.01.80)
TTITLE3=24 Hours (Live In Amsterdam 11.01.80)
TTITLE4=Wilderness (Live In Amsterdam 11.01.80)
TTITLE5=Novelty (Live In Manchester 13.07.79)
TTITLE6=Candidate (Live In Manchester 13.07.79)
TTITLE7=The Only Mistake (Live In Manchester 13.07.79)
TTITLE8=Leaders Of Men (Live In London 22.09.79)
TTITLE9=She's Lost Control (Live In London 22.09.79)
TTITLE10=Glass (Live In London 22.09.79)
TTITLE11=Shadowplay (Live In London 22.09.79)
TTITLE12=Exercise One (Live In London 22.09.79)
EXTD=
EXTT0=
EXTT1=
EXTT2=
EXTT3=
EXTT4=
EXTT5=
EXTT6=
EXTT7=
EXTT8=
EXTT9=
EXTT10=
EXTT11=
EXTT12=
PLAYORDER=
